<?xml version="1.0" encoding="UTF-8" standalone="no"?><!-- Generator: Gravit.io --><svg xmlns="http://www.w3.org/2000/svg" xmlns:xlink="http://www.w3.org/1999/xlink" style="isolation:isolate" viewBox="1268.465 255.93 249.58 79.332" width="249.58pt" height="79.332pt"><g><path d=" M 1276.199 291.61 L 1276.199 291.61 L 1276.199 291.61 Q 1274.5 291.61 1273.157 292.557 L 1273.157 292.557 L 1273.157 292.557 Q 1271.814 293.504 1271.028 295.335 L 1271.028 295.335 L 1271.028 295.335 Q 1270.242 297.167 1270.242 299.325 L 1270.242 299.325 L 1270.242 299.325 Q 1270.242 301.151 1271.194 302.24 L 1271.194 302.24 L 1271.194 302.24 Q 1272.146 303.329 1273.816 303.329 L 1273.816 303.329 L 1273.816 303.329 Q 1275.174 303.329 1276.961 302.772 L 1276.961 302.772 L 1276.961 304.227 L 1276.961 304.227 Q 1276.121 304.53 1275.359 304.667 L 1275.359 304.667 L 1275.359 304.667 Q 1274.598 304.803 1273.523 304.803 L 1273.523 304.803 L 1273.523 304.803 Q 1271.16 304.803 1269.813 303.343 L 1269.813 303.343 L 1269.813 303.343 Q 1268.465 301.883 1268.465 299.364 L 1268.465 299.364 L 1268.465 299.364 Q 1268.465 296.815 1269.495 294.623 L 1269.495 294.623 L 1269.495 294.623 Q 1270.525 292.43 1272.264 291.278 L 1272.264 291.278 L 1272.264 291.278 Q 1274.002 290.125 1276.199 290.125 L 1276.199 290.125 L 1276.199 290.125 Q 1278.123 290.125 1279.598 290.907 L 1279.598 290.907 L 1278.924 292.284 L 1278.924 292.284 Q 1277.576 291.61 1276.199 291.61 L 1276.199 291.61 L 1276.199 291.61 L 1276.199 291.61 Z  M 1287.283 297.665 L 1287.283 297.665 L 1287.283 297.665 Q 1287.283 296.542 1286.673 295.843 L 1286.673 295.843 L 1286.673 295.843 Q 1286.063 295.145 1285.018 295.145 L 1285.018 295.145 L 1285.018 295.145 Q 1283.953 295.145 1283.108 295.868 L 1283.108 295.868 L 1283.108 295.868 Q 1282.264 296.59 1281.8 297.875 L 1281.8 297.875 L 1281.8 297.875 Q 1281.336 299.159 1281.336 300.731 L 1281.336 300.731 L 1281.336 300.731 Q 1281.336 302.01 1281.956 302.708 L 1281.956 302.708 L 1281.956 302.708 Q 1282.576 303.407 1283.738 303.407 L 1283.738 303.407 L 1283.738 303.407 Q 1284.754 303.407 1285.564 302.694 L 1285.564 302.694 L 1285.564 302.694 Q 1286.375 301.981 1286.829 300.667 L 1286.829 300.667 L 1286.829 300.667 Q 1287.283 299.354 1287.283 297.665 L 1287.283 297.665 L 1287.283 297.665 L 1287.283 297.665 Z  M 1298.357 304.608 L 1296.717 304.608 L 1298.162 297.85 L 1298.162 297.85 Q 1298.338 296.932 1298.338 296.532 L 1298.338 296.532 L 1298.338 296.532 Q 1298.338 295.848 1298.035 295.467 L 1298.035 295.467 L 1298.035 295.467 Q 1297.732 295.086 1297 295.086 L 1297 295.086 L 1297 295.086 Q 1296.18 295.086 1295.403 295.672 L 1295.403 295.672 L 1295.403 295.672 Q 1294.627 296.258 1294.036 297.347 L 1294.036 297.347 L 1294.036 297.347 Q 1293.445 298.436 1293.123 299.969 L 1293.123 299.969 L 1292.137 304.608 L 1290.496 304.608 L 1292.781 293.905 L 1294.139 293.905 L 1293.924 295.887 L 1294.021 295.887 L 1294.021 295.887 Q 1294.871 294.725 1295.716 294.217 L 1295.716 294.217 L 1295.716 294.217 Q 1296.561 293.709 1297.459 293.709 L 1297.459 293.709 L 1297.459 293.709 Q 1298.563 293.709 1299.158 294.344 L 1299.158 294.344 L 1299.158 294.344 Q 1299.754 294.979 1299.861 296.112 L 1299.861 296.112 L 1299.939 296.112 L 1299.939 296.112 Q 1300.779 294.891 1301.727 294.3 L 1301.727 294.3 L 1301.727 294.3 Q 1302.674 293.709 1303.641 293.709 L 1303.641 293.709 L 1303.641 293.709 Q 1304.881 293.709 1305.56 294.374 L 1305.56 294.374 L 1305.56 294.374 Q 1306.238 295.038 1306.238 296.307 L 1306.238 296.307 L 1306.238 296.307 Q 1306.238 296.971 1306.023 298.045 L 1306.023 298.045 L 1304.617 304.608 L 1302.957 304.608 L 1304.402 297.85 L 1304.402 297.85 Q 1304.598 296.834 1304.598 296.424 L 1304.598 296.424 L 1304.598 296.424 Q 1304.598 295.819 1304.261 295.453 L 1304.261 295.453 L 1304.261 295.453 Q 1303.924 295.086 1303.201 295.086 L 1303.201 295.086 L 1303.201 295.086 Q 1302.41 295.086 1301.639 295.653 L 1301.639 295.653 L 1301.639 295.653 Q 1300.867 296.219 1300.286 297.259 L 1300.286 297.259 L 1300.286 297.259 Q 1299.705 298.299 1299.402 299.725 L 1299.402 299.725 L 1298.357 304.608 L 1298.357 304.608 L 1298.357 304.608 L 1298.357 304.608 Z  M 1315.799 304.608 L 1314.158 304.608 L 1315.604 297.85 L 1315.604 297.85 Q 1315.779 296.932 1315.779 296.532 L 1315.779 296.532 L 1315.779 296.532 Q 1315.779 295.848 1315.477 295.467 L 1315.477 295.467 L 1315.477 295.467 Q 1315.174 295.086 1314.441 295.086 L 1314.441 295.086 L 1314.441 295.086 Q 1313.621 295.086 1312.845 295.672 L 1312.845 295.672 L 1312.845 295.672 Q 1312.068 296.258 1311.478 297.347 L 1311.478 297.347 L 1311.478 297.347 Q 1310.887 298.436 1310.564 299.969 L 1310.564 299.969 L 1309.578 304.608 L 1307.938 304.608 L 1310.223 293.905 L 1311.58 293.905 L 1311.365 295.887 L 1311.463 295.887 L 1311.463 295.887 Q 1312.313 294.725 1313.157 294.217 L 1313.157 294.217 L 1313.157 294.217 Q 1314.002 293.709 1314.9 293.709 L 1314.9 293.709 L 1314.9 293.709 Q 1316.004 293.709 1316.6 294.344 L 1316.6 294.344 L 1316.6 294.344 Q 1317.195 294.979 1317.303 296.112 L 1317.303 296.112 L 1317.381 296.112 L 1317.381 296.112 Q 1318.221 294.891 1319.168 294.3 L 1319.168 294.3 L 1319.168 294.3 Q 1320.115 293.709 1321.082 293.709 L 1321.082 293.709 L 1321.082 293.709 Q 1322.322 293.709 1323.001 294.374 L 1323.001 294.374 L 1323.001 294.374 Q 1323.68 295.038 1323.68 296.307 L 1323.68 296.307 L 1323.68 296.307 Q 1323.68 296.971 1323.465 298.045 L 1323.465 298.045 L 1322.059 304.608 L 1320.398 304.608 L 1321.844 297.85 L 1321.844 297.85 Q 1322.039 296.834 1322.039 296.424 L 1322.039 296.424 L 1322.039 296.424 Q 1322.039 295.819 1321.702 295.453 L 1321.702 295.453 L 1321.702 295.453 Q 1321.365 295.086 1320.643 295.086 L 1320.643 295.086 L 1320.643 295.086 Q 1319.852 295.086 1319.08 295.653 L 1319.08 295.653 L 1319.08 295.653 Q 1318.309 296.219 1317.728 297.259 L 1317.728 297.259 L 1317.728 297.259 Q 1317.146 298.299 1316.844 299.725 L 1316.844 299.725 L 1315.799 304.608 L 1315.799 304.608 L 1315.799 304.608 L 1315.799 304.608 Z  M 1327.547 293.905 L 1329.207 293.905 L 1327.742 300.692 L 1327.742 300.692 Q 1327.566 301.561 1327.566 302.049 L 1327.566 302.049 L 1327.566 302.049 Q 1327.566 303.446 1329.002 303.446 L 1329.002 303.446 L 1329.002 303.446 Q 1329.861 303.446 1330.691 302.86 L 1330.691 302.86 L 1330.691 302.86 Q 1331.521 302.274 1332.156 301.18 L 1332.156 301.18 L 1332.156 301.18 Q 1332.791 300.086 1333.123 298.543 L 1333.123 298.543 L 1334.1 293.905 L 1335.721 293.905 L 1333.465 304.608 L 1332.107 304.608 L 1332.322 302.625 L 1332.205 302.625 L 1332.205 302.625 Q 1331.248 303.846 1330.379 304.325 L 1330.379 304.325 L 1330.379 304.325 Q 1329.51 304.803 1328.582 304.803 L 1328.582 304.803 L 1328.582 304.803 Q 1327.332 304.803 1326.619 304.125 L 1326.619 304.125 L 1326.619 304.125 Q 1325.906 303.446 1325.906 302.186 L 1325.906 302.186 L 1325.906 302.186 Q 1325.906 301.581 1326.121 300.506 L 1326.121 300.506 L 1327.547 293.905 L 1327.547 293.905 L 1327.547 293.905 L 1327.547 293.905 Z  M 1345.125 304.608 L 1343.465 304.608 L 1344.91 297.85 L 1344.91 297.85 Q 1345.105 296.834 1345.105 296.444 L 1345.105 296.444 L 1345.105 296.444 Q 1345.105 295.829 1344.759 295.458 L 1344.759 295.458 L 1344.759 295.458 Q 1344.412 295.086 1343.65 295.086 L 1343.65 295.086 L 1343.65 295.086 Q 1342.781 295.086 1341.956 295.672 L 1341.956 295.672 L 1341.956 295.672 Q 1341.131 296.258 1340.501 297.342 L 1340.501 297.342 L 1340.501 297.342 Q 1339.871 298.426 1339.549 299.969 L 1339.549 299.969 L 1338.563 304.608 L 1336.922 304.608 L 1339.207 293.905 L 1340.564 293.905 L 1340.35 295.887 L 1340.447 295.887 L 1340.447 295.887 Q 1341.385 294.696 1342.259 294.203 L 1342.259 294.203 L 1342.259 294.203 Q 1343.133 293.709 1344.07 293.709 L 1344.07 293.709 L 1344.07 293.709 Q 1345.311 293.709 1346.028 294.388 L 1346.028 294.388 L 1346.028 294.388 Q 1346.746 295.067 1346.746 296.288 L 1346.746 296.288 L 1346.746 296.288 Q 1346.746 297.059 1346.521 298.045 L 1346.521 298.045 L 1345.125 304.608 L 1345.125 304.608 L 1345.125 304.608 L 1345.125 304.608 Z  M 1352.391 293.905 L 1350.105 304.608 L 1348.465 304.608 L 1350.75 293.905 L 1352.391 293.905 L 1352.391 293.905 L 1352.391 293.905 L 1352.391 293.905 Z  M 1351.209 291.17 L 1351.209 291.17 L 1351.209 291.17 Q 1351.209 290.624 1351.521 290.277 L 1351.521 290.277 L 1351.521 290.277 Q 1351.834 289.93 1352.332 289.93 L 1352.332 289.93 L 1352.332 289.93 Q 1353.191 289.93 1353.191 290.809 L 1353.191 290.809 L 1353.191 290.809 Q 1353.191 291.346 1352.864 291.717 L 1352.864 291.717 L 1352.864 291.717 Q 1352.537 292.088 1352.107 292.088 L 1352.107 292.088 L 1352.107 292.088 Q 1351.717 292.088 1351.463 291.849 L 1351.463 291.849 L 1351.463 291.849 Q 1351.209 291.61 1351.209 291.17 L 1351.209 291.17 L 1351.209 291.17 L 1351.209 291.17 Z  M 1356.824 303.465 L 1356.824 303.465 L 1356.824 303.465 Q 1357.361 303.465 1358.23 303.211 L 1358.23 303.211 L 1358.23 304.471 L 1358.23 304.471 Q 1357.898 304.608 1357.41 304.706 L 1357.41 304.706 L 1357.41 304.706 Q 1356.922 304.803 1356.629 304.803 L 1356.629 304.803 L 1356.629 304.803 Q 1355.408 304.803 1354.759 304.222 L 1354.759 304.222 L 1354.759 304.222 Q 1354.109 303.641 1354.109 302.489 L 1354.109 302.489 L 1354.109 302.489 Q 1354.109 301.844 1354.285 301.024 L 1354.285 301.024 L 1355.525 295.145 L 1353.846 295.145 L 1353.982 294.432 L 1355.789 293.67 L 1357.01 291.444 L 1357.967 291.444 L 1357.43 293.905 L 1360.105 293.905 L 1359.852 295.145 L 1357.186 295.145 L 1355.926 301.043 L 1355.926 301.043 Q 1355.75 301.893 1355.75 302.333 L 1355.75 302.333 L 1355.75 302.333 Q 1355.75 302.879 1356.033 303.172 L 1356.033 303.172 L 1356.033 303.172 Q 1356.316 303.465 1356.824 303.465 L 1356.824 303.465 L 1356.824 303.465 L 1356.824 303.465 Z  M 1362.029 304.784 L 1360.408 293.905 L 1362.049 293.905 L 1362.771 299.227 L 1362.771 299.227 Q 1362.869 299.901 1362.962 301.214 L 1362.962 301.214 L 1362.962 301.214 Q 1363.055 302.528 1363.055 303.329 L 1363.055 303.329 L 1363.113 303.329 L 1363.113 303.329 Q 1363.455 302.479 1363.963 301.375 L 1363.963 301.375 L 1363.963 301.375 Q 1364.471 300.272 1364.715 299.852 L 1364.715 299.852 L 1367.889 293.905 L 1369.627 293.905 L 1362.83 306.424 L 1362.83 306.424 Q 1361.922 308.104 1361.033 308.758 L 1361.033 308.758 L 1361.033 308.758 Q 1360.145 309.413 1358.895 309.413 L 1358.895 309.413 L 1358.895 309.413 Q 1358.191 309.413 1357.527 309.208 L 1357.527 309.208 L 1357.527 307.889 L 1357.527 307.889 Q 1358.143 308.065 1358.807 308.065 L 1358.807 308.065 L 1358.807 308.065 Q 1359.607 308.065 1360.179 307.572 L 1360.179 307.572 L 1360.179 307.572 Q 1360.75 307.079 1361.287 306.112 L 1361.287 306.112 L 1362.029 304.784 L 1362.029 304.784 L 1362.029 304.784 L 1362.029 304.784 Z  M 1382.801 300.467 L 1382.801 300.467 L 1382.801 300.467 Q 1382.801 302.528 1381.429 303.666 L 1381.429 303.666 L 1381.429 303.666 Q 1380.057 304.803 1377.566 304.803 L 1377.566 304.803 L 1377.566 304.803 Q 1376.531 304.803 1375.745 304.662 L 1375.745 304.662 L 1375.745 304.662 Q 1374.959 304.52 1374.266 304.188 L 1374.266 304.188 L 1374.266 302.528 L 1374.266 302.528 Q 1375.848 303.348 1377.586 303.348 L 1377.586 303.348 L 1377.586 303.348 Q 1379.168 303.348 1380.096 302.611 L 1380.096 302.611 L 1380.096 302.611 Q 1381.023 301.874 1381.023 300.584 L 1381.023 300.584 L 1381.023 300.584 Q 1381.023 299.823 1380.511 299.242 L 1380.511 299.242 L 1380.511 299.242 Q 1379.998 298.661 1378.602 297.87 L 1378.602 297.87 L 1378.602 297.87 Q 1377.127 297.04 1376.556 296.209 L 1376.556 296.209 L 1376.556 296.209 Q 1375.984 295.379 1375.984 294.247 L 1375.984 294.247 L 1375.984 294.247 Q 1375.984 292.42 1377.273 291.273 L 1377.273 291.273 L 1377.273 291.273 Q 1378.563 290.125 1380.662 290.125 L 1380.662 290.125 L 1380.662 290.125 Q 1381.629 290.125 1382.464 290.311 L 1382.464 290.311 L 1382.464 290.311 Q 1383.299 290.497 1384.227 290.946 L 1384.227 290.946 L 1383.582 292.411 L 1383.582 292.411 Q 1382.938 292.04 1382.137 291.825 L 1382.137 291.825 L 1382.137 291.825 Q 1381.336 291.61 1380.662 291.61 L 1380.662 291.61 L 1380.662 291.61 Q 1379.354 291.61 1378.558 292.289 L 1378.558 292.289 L 1378.558 292.289 Q 1377.762 292.967 1377.762 294.129 L 1377.762 294.129 L 1377.762 294.129 Q 1377.762 294.657 1377.928 295.033 L 1377.928 295.033 L 1377.928 295.033 Q 1378.094 295.409 1378.455 295.741 L 1378.455 295.741 L 1378.455 295.741 Q 1378.816 296.073 1379.842 296.668 L 1379.842 296.668 L 1379.842 296.668 Q 1381.277 297.528 1381.78 298.016 L 1381.78 298.016 L 1381.78 298.016 Q 1382.283 298.504 1382.542 299.095 L 1382.542 299.095 L 1382.542 299.095 Q 1382.801 299.686 1382.801 300.467 L 1382.801 300.467 L 1382.801 300.467 L 1382.801 300.467 Z  M 1388.865 304.803 L 1388.865 304.803 L 1388.865 304.803 Q 1386.971 304.803 1385.926 303.758 L 1385.926 303.758 L 1385.926 303.758 Q 1384.881 302.713 1384.881 300.809 L 1384.881 300.809 L 1384.881 300.809 Q 1384.881 298.856 1385.604 297.206 L 1385.604 297.206 L 1385.604 297.206 Q 1386.326 295.555 1387.601 294.632 L 1387.601 294.632 L 1387.601 294.632 Q 1388.875 293.709 1390.467 293.709 L 1390.467 293.709 L 1390.467 293.709 Q 1391.805 293.709 1393.084 294.208 L 1393.084 294.208 L 1392.625 295.584 L 1392.625 295.584 Q 1391.453 295.086 1390.486 295.086 L 1390.486 295.086 L 1390.486 295.086 Q 1389.393 295.086 1388.489 295.833 L 1388.489 295.833 L 1388.489 295.833 Q 1387.586 296.581 1387.073 297.914 L 1387.073 297.914 L 1387.073 297.914 Q 1386.561 299.247 1386.561 300.809 L 1386.561 300.809 L 1386.561 300.809 Q 1386.561 302.059 1387.21 302.752 L 1387.21 302.752 L 1387.21 302.752 Q 1387.859 303.446 1389.002 303.446 L 1389.002 303.446 L 1389.002 303.446 Q 1389.705 303.446 1390.33 303.25 L 1390.33 303.25 L 1390.33 303.25 Q 1390.955 303.055 1391.561 302.792 L 1391.561 302.792 L 1391.561 304.188 L 1391.561 304.188 Q 1390.35 304.803 1388.865 304.803 L 1388.865 304.803 L 1388.865 304.803 L 1388.865 304.803 Z  M 1397.43 293.905 L 1395.145 304.608 L 1393.504 304.608 L 1395.789 293.905 L 1397.43 293.905 L 1397.43 293.905 L 1397.43 293.905 L 1397.43 293.905 Z  M 1396.248 291.17 L 1396.248 291.17 L 1396.248 291.17 Q 1396.248 290.624 1396.561 290.277 L 1396.561 290.277 L 1396.561 290.277 Q 1396.873 289.93 1397.371 289.93 L 1397.371 289.93 L 1397.371 289.93 Q 1398.23 289.93 1398.23 290.809 L 1398.23 290.809 L 1398.23 290.809 Q 1398.23 291.346 1397.903 291.717 L 1397.903 291.717 L 1397.903 291.717 Q 1397.576 292.088 1397.146 292.088 L 1397.146 292.088 L 1397.146 292.088 Q 1396.756 292.088 1396.502 291.849 L 1396.502 291.849 L 1396.502 291.849 Q 1396.248 291.61 1396.248 291.17 L 1396.248 291.17 L 1396.248 291.17 L 1396.248 291.17 Z  M 1404.168 295.106 L 1404.168 295.106 L 1404.168 295.106 Q 1403.162 295.106 1402.278 296.024 L 1402.278 296.024 L 1402.278 296.024 Q 1401.395 296.942 1400.926 298.573 L 1400.926 298.573 L 1401.043 298.573 L 1401.043 298.573 Q 1403.27 298.573 1404.456 297.992 L 1404.456 297.992 L 1404.456 297.992 Q 1405.643 297.411 1405.643 296.307 L 1405.643 296.307 L 1405.643 296.307 Q 1405.643 295.79 1405.286 295.448 L 1405.286 295.448 L 1405.286 295.448 Q 1404.93 295.106 1404.168 295.106 L 1404.168 295.106 L 1404.168 295.106 L 1404.168 295.106 Z  M 1416.648 304.608 L 1414.988 304.608 L 1416.434 297.85 L 1416.434 297.85 Q 1416.629 296.834 1416.629 296.444 L 1416.629 296.444 L 1416.629 296.444 Q 1416.629 295.829 1416.282 295.458 L 1416.282 295.458 L 1416.282 295.458 Q 1415.936 295.086 1415.174 295.086 L 1415.174 295.086 L 1415.174 295.086 Q 1414.305 295.086 1413.479 295.672 L 1413.479 295.672 L 1413.479 295.672 Q 1412.654 296.258 1412.024 297.342 L 1412.024 297.342 L 1412.024 297.342 Q 1411.395 298.426 1411.072 299.969 L 1411.072 299.969 L 1410.086 304.608 L 1408.445 304.608 L 1410.73 293.905 L 1412.088 293.905 L 1411.873 295.887 L 1411.971 295.887 L 1411.971 295.887 Q 1412.908 294.696 1413.782 294.203 L 1413.782 294.203 L 1413.782 294.203 Q 1414.656 293.709 1415.594 293.709 L 1415.594 293.709 L 1415.594 293.709 Q 1416.834 293.709 1417.552 294.388 L 1417.552 294.388 L 1417.552 294.388 Q 1418.27 295.067 1418.27 296.288 L 1418.27 296.288 L 1418.27 296.288 Q 1418.27 297.059 1418.045 298.045 L 1418.045 298.045 L 1416.648 304.608 L 1416.648 304.608 L 1416.648 304.608 L 1416.648 304.608 Z  M 1424.354 304.803 L 1424.354 304.803 L 1424.354 304.803 Q 1422.459 304.803 1421.414 303.758 L 1421.414 303.758 L 1421.414 303.758 Q 1420.369 302.713 1420.369 300.809 L 1420.369 300.809 L 1420.369 300.809 Q 1420.369 298.856 1421.092 297.206 L 1421.092 297.206 L 1421.092 297.206 Q 1421.814 295.555 1423.089 294.632 L 1423.089 294.632 L 1423.089 294.632 Q 1424.363 293.709 1425.955 293.709 L 1425.955 293.709 L 1425.955 293.709 Q 1427.293 293.709 1428.572 294.208 L 1428.572 294.208 L 1428.113 295.584 L 1428.113 295.584 Q 1426.941 295.086 1425.975 295.086 L 1425.975 295.086 L 1425.975 295.086 Q 1424.881 295.086 1423.978 295.833 L 1423.978 295.833 L 1423.978 295.833 Q 1423.074 296.581 1422.562 297.914 L 1422.562 297.914 L 1422.562 297.914 Q 1422.049 299.247 1422.049 300.809 L 1422.049 300.809 L 1422.049 300.809 Q 1422.049 302.059 1422.698 302.752 L 1422.698 302.752 L 1422.698 302.752 Q 1423.348 303.446 1424.49 303.446 L 1424.49 303.446 L 1424.49 303.446 Q 1425.193 303.446 1425.818 303.25 L 1425.818 303.25 L 1425.818 303.25 Q 1426.443 303.055 1427.049 302.792 L 1427.049 302.792 L 1427.049 304.188 L 1427.049 304.188 Q 1425.838 304.803 1424.354 304.803 L 1424.354 304.803 L 1424.354 304.803 L 1424.354 304.803 Z  M 1434.578 295.106 L 1434.578 295.106 L 1434.578 295.106 Q 1433.572 295.106 1432.688 296.024 L 1432.688 296.024 L 1432.688 296.024 Q 1431.805 296.942 1431.336 298.573 L 1431.336 298.573 L 1431.453 298.573 L 1431.453 298.573 Q 1433.68 298.573 1434.866 297.992 L 1434.866 297.992 L 1434.866 297.992 Q 1436.053 297.411 1436.053 296.307 L 1436.053 296.307 L 1436.053 296.307 Q 1436.053 295.79 1435.696 295.448 L 1435.696 295.448 L 1435.696 295.448 Q 1435.34 295.106 1434.578 295.106 L 1434.578 295.106 L 1434.578 295.106 L 1434.578 295.106 Z  M 1451.355 304.608 L 1450.076 304.608 L 1448.455 291.952 L 1448.377 291.952 L 1448.377 291.952 Q 1448.309 292.655 1448.099 293.88 L 1448.099 293.88 L 1448.099 293.88 Q 1447.889 295.106 1447.732 295.829 L 1447.732 295.829 L 1445.877 304.608 L 1444.295 304.608 L 1447.313 290.331 L 1449.695 290.331 L 1451.15 302.088 L 1451.238 302.088 L 1457.674 290.331 L 1460.271 290.331 L 1457.313 304.608 L 1455.613 304.608 L 1455.613 304.608 Q 1456.844 298.846 1457.498 295.765 L 1457.498 295.765 L 1457.498 295.765 Q 1458.152 292.684 1458.416 291.932 L 1458.416 291.932 L 1458.357 291.932 L 1451.355 304.608 L 1451.355 304.608 L 1451.355 304.608 L 1451.355 304.608 Z  M 1462.957 293.905 L 1464.617 293.905 L 1463.152 300.692 L 1463.152 300.692 Q 1462.977 301.561 1462.977 302.049 L 1462.977 302.049 L 1462.977 302.049 Q 1462.977 303.446 1464.412 303.446 L 1464.412 303.446 L 1464.412 303.446 Q 1465.271 303.446 1466.102 302.86 L 1466.102 302.86 L 1466.102 302.86 Q 1466.932 302.274 1467.566 301.18 L 1467.566 301.18 L 1467.566 301.18 Q 1468.201 300.086 1468.533 298.543 L 1468.533 298.543 L 1469.51 293.905 L 1471.131 293.905 L 1468.875 304.608 L 1467.518 304.608 L 1467.732 302.625 L 1467.615 302.625 L 1467.615 302.625 Q 1466.658 303.846 1465.789 304.325 L 1465.789 304.325 L 1465.789 304.325 Q 1464.92 304.803 1463.992 304.803 L 1463.992 304.803 L 1463.992 304.803 Q 1462.742 304.803 1462.029 304.125 L 1462.029 304.125 L 1462.029 304.125 Q 1461.316 303.446 1461.316 302.186 L 1461.316 302.186 L 1461.316 302.186 Q 1461.316 301.581 1461.531 300.506 L 1461.531 300.506 L 1462.957 293.905 L 1462.957 293.905 L 1462.957 293.905 L 1462.957 293.905 Z  M 1478.934 301.571 L 1478.934 301.571 L 1478.934 301.571 Q 1478.934 303.094 1477.854 303.949 L 1477.854 303.949 L 1477.854 303.949 Q 1476.775 304.803 1474.813 304.803 L 1474.813 304.803 L 1474.813 304.803 Q 1473.162 304.803 1471.834 304.129 L 1471.834 304.129 L 1471.834 302.586 L 1471.834 302.586 Q 1472.518 302.997 1473.309 303.221 L 1473.309 303.221 L 1473.309 303.221 Q 1474.1 303.446 1474.773 303.446 L 1474.773 303.446 L 1474.773 303.446 Q 1476.004 303.446 1476.629 302.958 L 1476.629 302.958 L 1476.629 302.958 Q 1477.254 302.469 1477.254 301.708 L 1477.254 301.708 L 1477.254 301.708 Q 1477.254 301.151 1476.912 300.77 L 1476.912 300.77 L 1476.912 300.77 Q 1476.57 300.389 1475.438 299.725 L 1475.438 299.725 L 1475.438 299.725 Q 1474.168 299.012 1473.641 298.329 L 1473.641 298.329 L 1473.641 298.329 Q 1473.113 297.645 1473.113 296.708 L 1473.113 296.708 L 1473.113 296.708 Q 1473.113 295.36 1474.1 294.535 L 1474.1 294.535 L 1474.1 294.535 Q 1475.086 293.709 1476.697 293.709 L 1476.697 293.709 L 1476.697 293.709 Q 1478.367 293.709 1479.92 294.432 L 1479.92 294.432 L 1479.393 295.77 L 1478.846 295.526 L 1478.846 295.526 Q 1477.859 295.106 1476.697 295.106 L 1476.697 295.106 L 1476.697 295.106 Q 1475.789 295.106 1475.271 295.531 L 1475.271 295.531 L 1475.271 295.531 Q 1474.754 295.956 1474.754 296.629 L 1474.754 296.629 L 1474.754 296.629 Q 1474.754 297.176 1475.101 297.567 L 1475.101 297.567 L 1475.101 297.567 Q 1475.447 297.958 1476.531 298.573 L 1476.531 298.573 L 1476.531 298.573 Q 1477.576 299.159 1478.03 299.579 L 1478.03 299.579 L 1478.03 299.579 Q 1478.484 299.999 1478.709 300.482 L 1478.709 300.482 L 1478.709 300.482 Q 1478.934 300.965 1478.934 301.571 L 1478.934 301.571 L 1478.934 301.571 L 1478.934 301.571 Z  M 1486.482 295.106 L 1486.482 295.106 L 1486.482 295.106 Q 1485.477 295.106 1484.593 296.024 L 1484.593 296.024 L 1484.593 296.024 Q 1483.709 296.942 1483.24 298.573 L 1483.24 298.573 L 1483.357 298.573 L 1483.357 298.573 Q 1485.584 298.573 1486.771 297.992 L 1486.771 297.992 L 1486.771 297.992 Q 1487.957 297.411 1487.957 296.307 L 1487.957 296.307 L 1487.957 296.307 Q 1487.957 295.79 1487.601 295.448 L 1487.601 295.448 L 1487.601 295.448 Q 1487.244 295.106 1486.482 295.106 L 1486.482 295.106 L 1486.482 295.106 L 1486.482 295.106 Z  M 1492.928 293.905 L 1494.588 293.905 L 1493.123 300.692 L 1493.123 300.692 Q 1492.947 301.561 1492.947 302.049 L 1492.947 302.049 L 1492.947 302.049 Q 1492.947 303.446 1494.383 303.446 L 1494.383 303.446 L 1494.383 303.446 Q 1495.242 303.446 1496.072 302.86 L 1496.072 302.86 L 1496.072 302.86 Q 1496.902 302.274 1497.537 301.18 L 1497.537 301.18 L 1497.537 301.18 Q 1498.172 300.086 1498.504 298.543 L 1498.504 298.543 L 1499.48 293.905 L 1501.102 293.905 L 1498.846 304.608 L 1497.488 304.608 L 1497.703 302.625 L 1497.586 302.625 L 1497.586 302.625 Q 1496.629 303.846 1495.76 304.325 L 1495.76 304.325 L 1495.76 304.325 Q 1494.891 304.803 1493.963 304.803 L 1493.963 304.803 L 1493.963 304.803 Q 1492.713 304.803 1492 304.125 L 1492 304.125 L 1492 304.125 Q 1491.287 303.446 1491.287 302.186 L 1491.287 302.186 L 1491.287 302.186 Q 1491.287 301.581 1491.502 300.506 L 1491.502 300.506 L 1492.928 293.905 L 1492.928 293.905 L 1492.928 293.905 L 1492.928 293.905 Z  M 1510.164 304.608 L 1508.523 304.608 L 1509.969 297.85 L 1509.969 297.85 Q 1510.145 296.932 1510.145 296.532 L 1510.145 296.532 L 1510.145 296.532 Q 1510.145 295.848 1509.842 295.467 L 1509.842 295.467 L 1509.842 295.467 Q 1509.539 295.086 1508.807 295.086 L 1508.807 295.086 L 1508.807 295.086 Q 1507.986 295.086 1507.21 295.672 L 1507.21 295.672 L 1507.21 295.672 Q 1506.434 296.258 1505.843 297.347 L 1505.843 297.347 L 1505.843 297.347 Q 1505.252 298.436 1504.93 299.969 L 1504.93 299.969 L 1503.943 304.608 L 1502.303 304.608 L 1504.588 293.905 L 1505.945 293.905 L 1505.73 295.887 L 1505.828 295.887 L 1505.828 295.887 Q 1506.678 294.725 1507.522 294.217 L 1507.522 294.217 L 1507.522 294.217 Q 1508.367 293.709 1509.266 293.709 L 1509.266 293.709 L 1509.266 293.709 Q 1510.369 293.709 1510.965 294.344 L 1510.965 294.344 L 1510.965 294.344 Q 1511.561 294.979 1511.668 296.112 L 1511.668 296.112 L 1511.746 296.112 L 1511.746 296.112 Q 1512.586 294.891 1513.533 294.3 L 1513.533 294.3 L 1513.533 294.3 Q 1514.48 293.709 1515.447 293.709 L 1515.447 293.709 L 1515.447 293.709 Q 1516.688 293.709 1517.366 294.374 L 1517.366 294.374 L 1517.366 294.374 Q 1518.045 295.038 1518.045 296.307 L 1518.045 296.307 L 1518.045 296.307 Q 1518.045 296.971 1517.83 298.045 L 1517.83 298.045 L 1516.424 304.608 L 1514.764 304.608 L 1516.209 297.85 L 1516.209 297.85 Q 1516.404 296.834 1516.404 296.424 L 1516.404 296.424 L 1516.404 296.424 Q 1516.404 295.819 1516.067 295.453 L 1516.067 295.453 L 1516.067 295.453 Q 1515.73 295.086 1515.008 295.086 L 1515.008 295.086 L 1515.008 295.086 Q 1514.217 295.086 1513.445 295.653 L 1513.445 295.653 L 1513.445 295.653 Q 1512.674 296.219 1512.093 297.259 L 1512.093 297.259 L 1512.093 297.259 Q 1511.512 298.299 1511.209 299.725 L 1511.209 299.725 L 1510.164 304.608 L 1510.164 304.608 L 1510.164 304.608 L 1510.164 304.608 Z  M 1281.838 330.859 L 1281.612 331.898 L 1276.588 331.898 L 1278.7 321.904 L 1283.725 321.904 L 1283.506 322.95 L 1279.637 322.95 L 1278.967 326.156 L 1282.569 326.156 L 1282.371 327.195 L 1278.755 327.195 L 1277.976 330.859 L 1281.838 330.859 L 1281.838 330.859 L 1281.838 330.859 L 1281.838 330.859 Z  M 1287.662 331.898 L 1286.35 328.932 L 1283.984 331.898 L 1282.651 331.898 L 1285.898 328.036 L 1284.265 324.406 L 1285.427 324.406 L 1286.616 327.223 L 1288.872 324.406 L 1290.198 324.406 L 1287.088 328.091 L 1288.811 331.898 L 1287.662 331.898 L 1287.662 331.898 L 1287.662 331.898 L 1287.662 331.898 Z  M 1294.847 325.233 L 1294.847 325.233 L 1294.847 325.233 Q 1294.19 325.233 1293.51 325.883 L 1293.51 325.883 L 1293.51 325.883 Q 1292.83 326.532 1292.43 327.517 L 1292.43 327.517 L 1292.43 327.517 Q 1292.03 328.501 1292.03 329.533 L 1292.03 329.533 L 1292.03 329.533 Q 1292.03 330.285 1292.41 330.685 L 1292.41 330.685 L 1292.41 330.685 Q 1292.789 331.085 1293.507 331.085 L 1293.507 331.085 L 1293.507 331.085 Q 1294.184 331.085 1294.768 330.531 L 1294.768 330.531 L 1294.768 330.531 Q 1295.353 329.978 1295.708 328.956 L 1295.708 328.956 L 1295.708 328.956 Q 1296.063 327.934 1296.063 326.785 L 1296.063 326.785 L 1296.063 326.785 Q 1296.063 325.233 1294.847 325.233 L 1294.847 325.233 L 1294.847 325.233 L 1294.847 325.233 Z  M 1301.737 321.262 L 1299.468 331.898 L 1298.319 331.898 L 1300.589 321.262 L 1301.737 321.262 L 1301.737 321.262 L 1301.737 321.262 L 1301.737 321.262 Z  M 1307.493 327.038 L 1307.493 327.038 L 1307.493 327.038 Q 1307.493 326.252 1307.066 325.763 L 1307.066 325.763 L 1307.066 325.763 Q 1306.639 325.274 1305.907 325.274 L 1305.907 325.274 L 1305.907 325.274 Q 1305.162 325.274 1304.571 325.78 L 1304.571 325.78 L 1304.571 325.78 Q 1303.979 326.286 1303.655 327.185 L 1303.655 327.185 L 1303.655 327.185 Q 1303.33 328.084 1303.33 329.185 L 1303.33 329.185 L 1303.33 329.185 Q 1303.33 330.08 1303.764 330.569 L 1303.764 330.569 L 1303.764 330.569 Q 1304.198 331.058 1305.012 331.058 L 1305.012 331.058 L 1305.012 331.058 Q 1305.723 331.058 1306.29 330.559 L 1306.29 330.559 L 1306.29 330.559 Q 1306.857 330.06 1307.175 329.14 L 1307.175 329.14 L 1307.175 329.14 Q 1307.493 328.221 1307.493 327.038 L 1307.493 327.038 L 1307.493 327.038 L 1307.493 327.038 Z  M 1314.479 324.27 L 1314.479 324.27 L 1314.479 324.27 Q 1314.951 324.27 1315.3 324.365 L 1315.3 324.365 L 1315.054 325.391 L 1315.054 325.391 Q 1314.691 325.302 1314.336 325.302 L 1314.336 325.302 L 1314.336 325.302 Q 1313.714 325.302 1313.17 325.712 L 1313.17 325.712 L 1313.17 325.712 Q 1312.627 326.122 1312.22 326.85 L 1312.22 326.85 L 1312.22 326.85 Q 1311.813 327.578 1311.622 328.467 L 1311.622 328.467 L 1310.891 331.898 L 1309.742 331.898 L 1311.342 324.406 L 1312.292 324.406 L 1312.142 325.794 L 1312.21 325.794 L 1312.21 325.794 Q 1312.702 325.145 1313.023 324.861 L 1313.023 324.861 L 1313.023 324.861 Q 1313.345 324.577 1313.697 324.423 L 1313.697 324.423 L 1313.697 324.423 Q 1314.049 324.27 1314.479 324.27 L 1314.479 324.27 L 1314.479 324.27 L 1314.479 324.27 Z  M 1319.196 325.247 L 1319.196 325.247 L 1319.196 325.247 Q 1318.492 325.247 1317.874 325.89 L 1317.874 325.89 L 1317.874 325.89 Q 1317.255 326.532 1316.927 327.674 L 1316.927 327.674 L 1317.009 327.674 L 1317.009 327.674 Q 1318.567 327.674 1319.398 327.267 L 1319.398 327.267 L 1319.398 327.267 Q 1320.229 326.86 1320.229 326.088 L 1320.229 326.088 L 1320.229 326.088 Q 1320.229 325.726 1319.979 325.486 L 1319.979 325.486 L 1319.979 325.486 Q 1319.729 325.247 1319.196 325.247 L 1319.196 325.247 L 1319.196 325.247 L 1319.196 325.247 Z  M 1328.124 331.099 L 1328.124 331.099 L 1328.124 331.099 Q 1328.5 331.099 1329.108 330.921 L 1329.108 330.921 L 1329.108 331.803 L 1329.108 331.803 Q 1328.876 331.898 1328.534 331.967 L 1328.534 331.967 L 1328.534 331.967 Q 1328.192 332.035 1327.987 332.035 L 1327.987 332.035 L 1327.987 332.035 Q 1327.133 332.035 1326.678 331.628 L 1326.678 331.628 L 1326.678 331.628 Q 1326.224 331.222 1326.224 330.415 L 1326.224 330.415 L 1326.224 330.415 Q 1326.224 329.964 1326.347 329.39 L 1326.347 329.39 L 1327.215 325.274 L 1326.039 325.274 L 1326.135 324.775 L 1327.399 324.242 L 1328.254 322.684 L 1328.924 322.684 L 1328.548 324.406 L 1330.421 324.406 L 1330.243 325.274 L 1328.377 325.274 L 1327.495 329.403 L 1327.495 329.403 Q 1327.372 329.998 1327.372 330.306 L 1327.372 330.306 L 1327.372 330.306 Q 1327.372 330.688 1327.57 330.894 L 1327.57 330.894 L 1327.57 330.894 Q 1327.769 331.099 1328.124 331.099 L 1328.124 331.099 L 1328.124 331.099 L 1328.124 331.099 Z  M 1335.972 327.038 L 1335.972 327.038 L 1335.972 327.038 Q 1335.972 326.252 1335.544 325.763 L 1335.544 325.763 L 1335.544 325.763 Q 1335.117 325.274 1334.386 325.274 L 1334.386 325.274 L 1334.386 325.274 Q 1333.641 325.274 1333.049 325.78 L 1333.049 325.78 L 1333.049 325.78 Q 1332.458 326.286 1332.133 327.185 L 1332.133 327.185 L 1332.133 327.185 Q 1331.809 328.084 1331.809 329.185 L 1331.809 329.185 L 1331.809 329.185 Q 1331.809 330.08 1332.243 330.569 L 1332.243 330.569 L 1332.243 330.569 Q 1332.677 331.058 1333.49 331.058 L 1333.49 331.058 L 1333.49 331.058 Q 1334.201 331.058 1334.769 330.559 L 1334.769 330.559 L 1334.769 330.559 Q 1335.336 330.06 1335.654 329.14 L 1335.654 329.14 L 1335.654 329.14 Q 1335.972 328.221 1335.972 327.038 L 1335.972 327.038 L 1335.972 327.038 L 1335.972 327.038 Z  M 1338.057 333.231 L 1338.057 333.231 L 1338.057 333.231 Q 1338.057 333.758 1338.501 334.065 L 1338.501 334.065 L 1338.501 334.065 Q 1338.945 334.373 1339.82 334.373 L 1339.82 334.373 L 1339.82 334.373 Q 1341.064 334.373 1341.765 333.939 L 1341.765 333.939 L 1341.765 333.939 Q 1342.466 333.505 1342.466 332.712 L 1342.466 332.712 L 1342.466 332.712 Q 1342.466 332.288 1342.097 332.042 L 1342.097 332.042 L 1342.097 332.042 Q 1341.728 331.796 1340.839 331.7 L 1340.839 331.7 L 1339.752 331.591 L 1339.752 331.591 Q 1338.932 331.762 1338.494 332.192 L 1338.494 332.192 L 1338.494 332.192 Q 1338.057 332.623 1338.057 333.231 L 1338.057 333.231 L 1338.057 333.231 L 1338.057 333.231 Z  M 1339.957 327.25 L 1339.957 327.25 L 1339.957 327.25 Q 1339.957 327.831 1340.265 328.135 L 1340.265 328.135 L 1340.265 328.135 Q 1340.572 328.439 1341.119 328.439 L 1341.119 328.439 L 1341.119 328.439 Q 1341.659 328.439 1342.063 328.152 L 1342.063 328.152 L 1342.063 328.152 Q 1342.466 327.865 1342.681 327.363 L 1342.681 327.363 L 1342.681 327.363 Q 1342.896 326.86 1342.896 326.272 L 1342.896 326.272 L 1342.896 326.272 Q 1342.896 325.712 1342.596 325.418 L 1342.596 325.418 L 1342.596 325.418 Q 1342.295 325.124 1341.734 325.124 L 1341.734 325.124 L 1341.734 325.124 Q 1341.201 325.124 1340.801 325.401 L 1340.801 325.401 L 1340.801 325.401 Q 1340.401 325.678 1340.179 326.173 L 1340.179 326.173 L 1340.179 326.173 Q 1339.957 326.669 1339.957 327.25 L 1339.957 327.25 L 1339.957 327.25 L 1339.957 327.25 Z  M 1349.145 325.247 L 1349.145 325.247 L 1349.145 325.247 Q 1348.44 325.247 1347.822 325.89 L 1347.822 325.89 L 1347.822 325.89 Q 1347.203 326.532 1346.875 327.674 L 1346.875 327.674 L 1346.957 327.674 L 1346.957 327.674 Q 1348.516 327.674 1349.346 327.267 L 1349.346 327.267 L 1349.346 327.267 Q 1350.177 326.86 1350.177 326.088 L 1350.177 326.088 L 1350.177 326.088 Q 1350.177 325.726 1349.927 325.486 L 1349.927 325.486 L 1349.927 325.486 Q 1349.678 325.247 1349.145 325.247 L 1349.145 325.247 L 1349.145 325.247 L 1349.145 325.247 Z  M 1354.436 331.099 L 1354.436 331.099 L 1354.436 331.099 Q 1354.812 331.099 1355.42 330.921 L 1355.42 330.921 L 1355.42 331.803 L 1355.42 331.803 Q 1355.188 331.898 1354.846 331.967 L 1354.846 331.967 L 1354.846 331.967 Q 1354.504 332.035 1354.299 332.035 L 1354.299 332.035 L 1354.299 332.035 Q 1353.444 332.035 1352.99 331.628 L 1352.99 331.628 L 1352.99 331.628 Q 1352.535 331.222 1352.535 330.415 L 1352.535 330.415 L 1352.535 330.415 Q 1352.535 329.964 1352.658 329.39 L 1352.658 329.39 L 1353.526 325.274 L 1352.351 325.274 L 1352.446 324.775 L 1353.711 324.242 L 1354.565 322.684 L 1355.235 322.684 L 1354.859 324.406 L 1356.732 324.406 L 1356.555 325.274 L 1354.688 325.274 L 1353.807 329.403 L 1353.807 329.403 Q 1353.684 329.998 1353.684 330.306 L 1353.684 330.306 L 1353.684 330.306 Q 1353.684 330.688 1353.882 330.894 L 1353.882 330.894 L 1353.882 330.894 Q 1354.08 331.099 1354.436 331.099 L 1354.436 331.099 L 1354.436 331.099 L 1354.436 331.099 Z  M 1362.406 331.898 L 1361.258 331.898 L 1362.27 327.168 L 1362.27 327.168 Q 1362.393 326.525 1362.393 326.245 L 1362.393 326.245 L 1362.393 326.245 Q 1362.393 325.233 1361.388 325.233 L 1361.388 325.233 L 1361.388 325.233 Q 1360.779 325.233 1360.202 325.637 L 1360.202 325.637 L 1360.202 325.637 Q 1359.624 326.04 1359.183 326.809 L 1359.183 326.809 L 1359.183 326.809 Q 1358.742 327.578 1358.517 328.665 L 1358.517 328.665 L 1357.826 331.898 L 1356.678 331.898 L 1358.934 321.262 L 1360.082 321.262 L 1360.082 321.262 Q 1359.959 321.822 1359.846 322.349 L 1359.846 322.349 L 1359.846 322.349 Q 1359.733 322.875 1359.614 323.418 L 1359.614 323.418 L 1359.614 323.418 Q 1359.494 323.962 1359.354 324.557 L 1359.354 324.557 L 1359.354 324.557 Q 1359.214 325.151 1359.029 325.849 L 1359.029 325.849 L 1359.104 325.849 L 1359.104 325.849 Q 1359.747 325.008 1360.373 324.646 L 1360.373 324.646 L 1360.373 324.646 Q 1360.998 324.283 1361.682 324.283 L 1361.682 324.283 L 1361.682 324.283 Q 1362.577 324.283 1363.066 324.775 L 1363.066 324.775 L 1363.066 324.775 Q 1363.555 325.268 1363.555 326.17 L 1363.555 326.17 L 1363.555 326.17 Q 1363.555 326.594 1363.397 327.305 L 1363.397 327.305 L 1363.397 327.305 Q 1363.131 328.624 1362.406 331.898 L 1362.406 331.898 L 1362.406 331.898 L 1362.406 331.898 L 1362.406 331.898 Z  M 1368.668 325.247 L 1368.668 325.247 L 1368.668 325.247 Q 1367.964 325.247 1367.345 325.89 L 1367.345 325.89 L 1367.345 325.89 Q 1366.727 326.532 1366.398 327.674 L 1366.398 327.674 L 1366.48 327.674 L 1366.48 327.674 Q 1368.039 327.674 1368.87 327.267 L 1368.87 327.267 L 1368.87 327.267 Q 1369.7 326.86 1369.7 326.088 L 1369.7 326.088 L 1369.7 326.088 Q 1369.7 325.726 1369.451 325.486 L 1369.451 325.486 L 1369.451 325.486 Q 1369.201 325.247 1368.668 325.247 L 1368.668 325.247 L 1368.668 325.247 L 1368.668 325.247 Z  M 1376.399 324.27 L 1376.399 324.27 L 1376.399 324.27 Q 1376.871 324.27 1377.22 324.365 L 1377.22 324.365 L 1376.974 325.391 L 1376.974 325.391 Q 1376.611 325.302 1376.256 325.302 L 1376.256 325.302 L 1376.256 325.302 Q 1375.634 325.302 1375.09 325.712 L 1375.09 325.712 L 1375.09 325.712 Q 1374.547 326.122 1374.14 326.85 L 1374.14 326.85 L 1374.14 326.85 Q 1373.733 327.578 1373.542 328.467 L 1373.542 328.467 L 1372.811 331.898 L 1371.662 331.898 L 1373.262 324.406 L 1374.212 324.406 L 1374.062 325.794 L 1374.13 325.794 L 1374.13 325.794 Q 1374.622 325.145 1374.943 324.861 L 1374.943 324.861 L 1374.943 324.861 Q 1375.265 324.577 1375.617 324.423 L 1375.617 324.423 L 1375.617 324.423 Q 1375.969 324.27 1376.399 324.27 L 1376.399 324.27 L 1376.399 324.27 L 1376.399 324.27 Z  M 1274.701 317.567 L 1272.885 317.567 L 1273.275 322.723 L 1274.301 322.723 L 1274.701 317.567 L 1274.701 317.567 L 1274.701 317.567 Z  M 1271.098 317.567 L 1269.281 317.567 L 1269.682 322.723 L 1270.697 322.723 L 1271.098 317.567 L 1271.098 317.567 L 1271.098 317.567 Z  M 1284.979 293.768 L 1284.979 293.768 L 1284.979 293.768 Q 1286.834 293.768 1287.908 294.867 L 1287.908 294.867 L 1287.908 294.867 Q 1288.982 295.965 1288.982 297.889 L 1288.982 297.889 L 1288.982 297.889 Q 1288.982 299.725 1288.279 301.356 L 1288.279 301.356 L 1288.279 301.356 Q 1287.576 302.987 1286.375 303.875 L 1286.375 303.875 L 1286.375 303.875 Q 1285.174 304.764 1283.66 304.764 L 1283.66 304.764 L 1283.66 304.764 Q 1281.785 304.764 1280.721 303.661 L 1280.721 303.661 L 1280.721 303.661 Q 1279.656 302.557 1279.656 300.643 L 1279.656 300.643 L 1279.656 300.643 Q 1279.656 298.788 1280.369 297.152 L 1280.369 297.152 L 1280.369 297.152 Q 1281.082 295.516 1282.293 294.642 L 1282.293 294.642 L 1282.293 294.642 Q 1283.504 293.768 1284.979 293.768 L 1284.979 293.768 L 1284.979 293.768 L 1284.979 293.768 Z  M 1402.811 304.803 L 1402.811 304.803 L 1402.811 304.803 Q 1401.014 304.803 1399.988 303.739 L 1399.988 303.739 L 1399.988 303.739 Q 1398.963 302.674 1398.963 300.79 L 1398.963 300.79 L 1398.963 300.79 Q 1398.963 298.954 1399.69 297.269 L 1399.69 297.269 L 1399.69 297.269 Q 1400.418 295.584 1401.619 294.647 L 1401.619 294.647 L 1401.619 294.647 Q 1402.82 293.709 1404.266 293.709 L 1404.266 293.709 L 1404.266 293.709 Q 1405.76 293.709 1406.512 294.359 L 1406.512 294.359 L 1406.512 294.359 Q 1407.264 295.008 1407.264 296.17 L 1407.264 296.17 L 1407.264 296.17 Q 1407.264 297.928 1405.643 298.929 L 1405.643 298.929 L 1405.643 298.929 Q 1404.021 299.93 1401.004 299.93 L 1401.004 299.93 L 1400.682 299.93 L 1400.643 300.711 L 1400.643 300.711 Q 1400.643 301.991 1401.243 302.708 L 1401.243 302.708 L 1401.243 302.708 Q 1401.844 303.426 1403.104 303.426 L 1403.104 303.426 L 1403.104 303.426 Q 1403.719 303.426 1404.368 303.25 L 1404.368 303.25 L 1404.368 303.25 Q 1405.018 303.075 1405.984 302.606 L 1405.984 302.606 L 1405.984 304.032 L 1405.984 304.032 Q 1405.066 304.461 1404.363 304.632 L 1404.363 304.632 L 1404.363 304.632 Q 1403.66 304.803 1402.811 304.803 L 1402.811 304.803 L 1402.811 304.803 L 1402.811 304.803 Z  M 1433.221 304.803 L 1433.221 304.803 L 1433.221 304.803 Q 1431.424 304.803 1430.398 303.739 L 1430.398 303.739 L 1430.398 303.739 Q 1429.373 302.674 1429.373 300.79 L 1429.373 300.79 L 1429.373 300.79 Q 1429.373 298.954 1430.101 297.269 L 1430.101 297.269 L 1430.101 297.269 Q 1430.828 295.584 1432.029 294.647 L 1432.029 294.647 L 1432.029 294.647 Q 1433.23 293.709 1434.676 293.709 L 1434.676 293.709 L 1434.676 293.709 Q 1436.17 293.709 1436.922 294.359 L 1436.922 294.359 L 1436.922 294.359 Q 1437.674 295.008 1437.674 296.17 L 1437.674 296.17 L 1437.674 296.17 Q 1437.674 297.928 1436.053 298.929 L 1436.053 298.929 L 1436.053 298.929 Q 1434.432 299.93 1431.414 299.93 L 1431.414 299.93 L 1431.092 299.93 L 1431.053 300.711 L 1431.053 300.711 Q 1431.053 301.991 1431.653 302.708 L 1431.653 302.708 L 1431.653 302.708 Q 1432.254 303.426 1433.514 303.426 L 1433.514 303.426 L 1433.514 303.426 Q 1434.129 303.426 1434.778 303.25 L 1434.778 303.25 L 1434.778 303.25 Q 1435.428 303.075 1436.395 302.606 L 1436.395 302.606 L 1436.395 304.032 L 1436.395 304.032 Q 1435.477 304.461 1434.773 304.632 L 1434.773 304.632 L 1434.773 304.632 Q 1434.07 304.803 1433.221 304.803 L 1433.221 304.803 L 1433.221 304.803 L 1433.221 304.803 Z  M 1485.125 304.803 L 1485.125 304.803 L 1485.125 304.803 Q 1483.328 304.803 1482.303 303.739 L 1482.303 303.739 L 1482.303 303.739 Q 1481.277 302.674 1481.277 300.79 L 1481.277 300.79 L 1481.277 300.79 Q 1481.277 298.954 1482.005 297.269 L 1482.005 297.269 L 1482.005 297.269 Q 1482.732 295.584 1483.934 294.647 L 1483.934 294.647 L 1483.934 294.647 Q 1485.135 293.709 1486.58 293.709 L 1486.58 293.709 L 1486.58 293.709 Q 1488.074 293.709 1488.826 294.359 L 1488.826 294.359 L 1488.826 294.359 Q 1489.578 295.008 1489.578 296.17 L 1489.578 296.17 L 1489.578 296.17 Q 1489.578 297.928 1487.957 298.929 L 1487.957 298.929 L 1487.957 298.929 Q 1486.336 299.93 1483.318 299.93 L 1483.318 299.93 L 1482.996 299.93 L 1482.957 300.711 L 1482.957 300.711 Q 1482.957 301.991 1483.558 302.708 L 1483.558 302.708 L 1483.558 302.708 Q 1484.158 303.426 1485.418 303.426 L 1485.418 303.426 L 1485.418 303.426 Q 1486.033 303.426 1486.683 303.25 L 1486.683 303.25 L 1486.683 303.25 Q 1487.332 303.075 1488.299 302.606 L 1488.299 302.606 L 1488.299 304.032 L 1488.299 304.032 Q 1487.381 304.461 1486.678 304.632 L 1486.678 304.632 L 1486.678 304.632 Q 1485.975 304.803 1485.125 304.803 L 1485.125 304.803 L 1485.125 304.803 L 1485.125 304.803 Z  M 1293.575 332.035 L 1293.575 332.035 L 1293.575 332.035 Q 1292.912 332.035 1292.413 331.693 L 1292.413 331.693 L 1292.413 331.693 Q 1291.914 331.352 1291.641 330.736 L 1291.641 330.736 L 1291.572 330.736 L 1291.545 330.996 L 1291.545 330.996 Q 1291.524 331.167 1291.473 331.475 L 1291.473 331.475 L 1291.473 331.475 Q 1291.422 331.782 1290.69 335.262 L 1290.69 335.262 L 1289.556 335.262 L 1291.853 324.406 L 1292.803 324.406 L 1292.625 325.835 L 1292.68 325.835 L 1292.68 325.835 Q 1293.903 324.283 1295.223 324.283 L 1295.223 324.283 L 1295.223 324.283 Q 1296.159 324.283 1296.699 324.95 L 1296.699 324.95 L 1296.699 324.95 Q 1297.239 325.616 1297.239 326.819 L 1297.239 326.819 L 1297.239 326.819 Q 1297.239 328.269 1296.768 329.479 L 1296.768 329.479 L 1296.768 329.479 Q 1296.296 330.688 1295.462 331.362 L 1295.462 331.362 L 1295.462 331.362 Q 1294.628 332.035 1293.575 332.035 L 1293.575 332.035 L 1293.575 332.035 L 1293.575 332.035 Z  M 1305.88 324.311 L 1305.88 324.311 L 1305.88 324.311 Q 1307.179 324.311 1307.931 325.08 L 1307.931 325.08 L 1307.931 325.08 Q 1308.683 325.849 1308.683 327.195 L 1308.683 327.195 L 1308.683 327.195 Q 1308.683 328.48 1308.19 329.622 L 1308.19 329.622 L 1308.19 329.622 Q 1307.698 330.764 1306.857 331.386 L 1306.857 331.386 L 1306.857 331.386 Q 1306.017 332.008 1304.957 332.008 L 1304.957 332.008 L 1304.957 332.008 Q 1303.645 332.008 1302.899 331.235 L 1302.899 331.235 L 1302.899 331.235 Q 1302.154 330.463 1302.154 329.123 L 1302.154 329.123 L 1302.154 329.123 Q 1302.154 327.824 1302.653 326.679 L 1302.653 326.679 L 1302.653 326.679 Q 1303.152 325.534 1304 324.922 L 1304 324.922 L 1304 324.922 Q 1304.848 324.311 1305.88 324.311 L 1305.88 324.311 L 1305.88 324.311 L 1305.88 324.311 Z  M 1318.246 332.035 L 1318.246 332.035 L 1318.246 332.035 Q 1316.988 332.035 1316.271 331.29 L 1316.271 331.29 L 1316.271 331.29 Q 1315.553 330.545 1315.553 329.226 L 1315.553 329.226 L 1315.553 329.226 Q 1315.553 327.94 1316.062 326.761 L 1316.062 326.761 L 1316.062 326.761 Q 1316.571 325.582 1317.412 324.926 L 1317.412 324.926 L 1317.412 324.926 Q 1318.253 324.27 1319.265 324.27 L 1319.265 324.27 L 1319.265 324.27 Q 1320.311 324.27 1320.837 324.724 L 1320.837 324.724 L 1320.837 324.724 Q 1321.363 325.179 1321.363 325.992 L 1321.363 325.992 L 1321.363 325.992 Q 1321.363 327.223 1320.229 327.923 L 1320.229 327.923 L 1320.229 327.923 Q 1319.094 328.624 1316.981 328.624 L 1316.981 328.624 L 1316.756 328.624 L 1316.729 329.171 L 1316.729 329.171 Q 1316.729 330.066 1317.149 330.569 L 1317.149 330.569 L 1317.149 330.569 Q 1317.569 331.071 1318.451 331.071 L 1318.451 331.071 L 1318.451 331.071 Q 1318.882 331.071 1319.336 330.948 L 1319.336 330.948 L 1319.336 330.948 Q 1319.791 330.825 1320.468 330.497 L 1320.468 330.497 L 1320.468 331.495 L 1320.468 331.495 Q 1319.825 331.796 1319.333 331.916 L 1319.333 331.916 L 1319.333 331.916 Q 1318.841 332.035 1318.246 332.035 L 1318.246 332.035 L 1318.246 332.035 L 1318.246 332.035 Z  M 1334.358 324.311 L 1334.358 324.311 L 1334.358 324.311 Q 1335.657 324.311 1336.409 325.08 L 1336.409 325.08 L 1336.409 325.08 Q 1337.161 325.849 1337.161 327.195 L 1337.161 327.195 L 1337.161 327.195 Q 1337.161 328.48 1336.669 329.622 L 1336.669 329.622 L 1336.669 329.622 Q 1336.177 330.764 1335.336 331.386 L 1335.336 331.386 L 1335.336 331.386 Q 1334.495 332.008 1333.436 332.008 L 1333.436 332.008 L 1333.436 332.008 Q 1332.123 332.008 1331.378 331.235 L 1331.378 331.235 L 1331.378 331.235 Q 1330.633 330.463 1330.633 329.123 L 1330.633 329.123 L 1330.633 329.123 Q 1330.633 327.824 1331.132 326.679 L 1331.132 326.679 L 1331.132 326.679 Q 1331.631 325.534 1332.479 324.922 L 1332.479 324.922 L 1332.479 324.922 Q 1333.326 324.311 1334.358 324.311 L 1334.358 324.311 L 1334.358 324.311 L 1334.358 324.311 Z  M 1348.194 332.035 L 1348.194 332.035 L 1348.194 332.035 Q 1346.937 332.035 1346.219 331.29 L 1346.219 331.29 L 1346.219 331.29 Q 1345.501 330.545 1345.501 329.226 L 1345.501 329.226 L 1345.501 329.226 Q 1345.501 327.94 1346.01 326.761 L 1346.01 326.761 L 1346.01 326.761 Q 1346.52 325.582 1347.36 324.926 L 1347.36 324.926 L 1347.36 324.926 Q 1348.201 324.27 1349.213 324.27 L 1349.213 324.27 L 1349.213 324.27 Q 1350.259 324.27 1350.785 324.724 L 1350.785 324.724 L 1350.785 324.724 Q 1351.312 325.179 1351.312 325.992 L 1351.312 325.992 L 1351.312 325.992 Q 1351.312 327.223 1350.177 327.923 L 1350.177 327.923 L 1350.177 327.923 Q 1349.042 328.624 1346.93 328.624 L 1346.93 328.624 L 1346.704 328.624 L 1346.677 329.171 L 1346.677 329.171 Q 1346.677 330.066 1347.097 330.569 L 1347.097 330.569 L 1347.097 330.569 Q 1347.518 331.071 1348.399 331.071 L 1348.399 331.071 L 1348.399 331.071 Q 1348.83 331.071 1349.285 330.948 L 1349.285 330.948 L 1349.285 330.948 Q 1349.739 330.825 1350.416 330.497 L 1350.416 330.497 L 1350.416 331.495 L 1350.416 331.495 Q 1349.773 331.796 1349.281 331.916 L 1349.281 331.916 L 1349.281 331.916 Q 1348.789 332.035 1348.194 332.035 L 1348.194 332.035 L 1348.194 332.035 L 1348.194 332.035 Z  M 1367.718 332.035 L 1367.718 332.035 L 1367.718 332.035 Q 1366.46 332.035 1365.742 331.29 L 1365.742 331.29 L 1365.742 331.29 Q 1365.024 330.545 1365.024 329.226 L 1365.024 329.226 L 1365.024 329.226 Q 1365.024 327.94 1365.534 326.761 L 1365.534 326.761 L 1365.534 326.761 Q 1366.043 325.582 1366.884 324.926 L 1366.884 324.926 L 1366.884 324.926 Q 1367.725 324.27 1368.736 324.27 L 1368.736 324.27 L 1368.736 324.27 Q 1369.782 324.27 1370.309 324.724 L 1370.309 324.724 L 1370.309 324.724 Q 1370.835 325.179 1370.835 325.992 L 1370.835 325.992 L 1370.835 325.992 Q 1370.835 327.223 1369.7 327.923 L 1369.7 327.923 L 1369.7 327.923 Q 1368.565 328.624 1366.453 328.624 L 1366.453 328.624 L 1366.228 328.624 L 1366.2 329.171 L 1366.2 329.171 Q 1366.2 330.066 1366.621 330.569 L 1366.621 330.569 L 1366.621 330.569 Q 1367.041 331.071 1367.923 331.071 L 1367.923 331.071 L 1367.923 331.071 Q 1368.354 331.071 1368.808 330.948 L 1368.808 330.948 L 1368.808 330.948 Q 1369.263 330.825 1369.939 330.497 L 1369.939 330.497 L 1369.939 331.495 L 1369.939 331.495 Q 1369.297 331.796 1368.805 331.916 L 1368.805 331.916 L 1368.805 331.916 Q 1368.313 332.035 1367.718 332.035 L 1367.718 332.035 L 1367.718 332.035 L 1367.718 332.035 Z  M 1342.801 324.406 L 1345.337 324.406 L 1345.166 325.138 L 1343.724 325.302 L 1343.724 325.302 Q 1344.004 325.726 1344.004 326.382 L 1344.004 326.382 L 1344.004 326.382 Q 1344.004 327.688 1343.208 328.463 L 1343.208 328.463 L 1343.208 328.463 Q 1342.411 329.239 1341.078 329.239 L 1341.078 329.239 L 1341.078 329.239 Q 1340.702 329.239 1340.504 329.185 L 1340.504 329.185 L 1340.504 329.185 Q 1339.554 329.547 1339.554 330.08 L 1339.554 330.08 L 1339.554 330.08 Q 1339.554 330.36 1339.779 330.453 L 1339.779 330.453 L 1339.779 330.453 Q 1340.005 330.545 1340.436 330.6 L 1340.436 330.6 L 1341.235 330.695 L 1341.235 330.695 Q 1342.473 330.846 1343.03 331.297 L 1343.03 331.297 L 1343.03 331.297 Q 1343.587 331.748 1343.587 332.623 L 1343.587 332.623 L 1343.587 332.623 Q 1343.587 333.881 1342.589 334.571 L 1342.589 334.571 L 1342.589 334.571 Q 1341.591 335.262 1339.779 335.262 L 1339.779 335.262 L 1339.779 335.262 Q 1338.453 335.262 1337.701 334.759 L 1337.701 334.759 L 1337.701 334.759 Q 1336.949 334.257 1336.949 333.341 L 1336.949 333.341 L 1336.949 333.341 Q 1336.949 332.623 1337.441 332.097 L 1337.441 332.097 L 1337.441 332.097 Q 1337.934 331.57 1339.034 331.201 L 1339.034 331.201 L 1339.034 331.201 Q 1338.501 330.921 1338.501 330.374 L 1338.501 330.374 L 1338.501 330.374 Q 1338.501 329.902 1338.85 329.564 L 1338.85 329.564 L 1338.85 329.564 Q 1339.198 329.226 1339.82 328.932 L 1339.82 328.932 L 1339.82 328.932 Q 1339.39 328.713 1339.116 328.286 L 1339.116 328.286 L 1339.116 328.286 Q 1338.843 327.858 1338.843 327.291 L 1338.843 327.291 L 1338.843 327.291 Q 1338.843 325.965 1339.66 325.117 L 1339.66 325.117 L 1339.66 325.117 Q 1340.477 324.27 1341.748 324.27 L 1341.748 324.27 L 1341.748 324.27 Q 1342.281 324.27 1342.801 324.406 L 1342.801 324.406 L 1342.801 324.406 L 1342.801 324.406 L 1342.801 324.406 Z  M 1386.701 317.567 L 1384.885 317.567 L 1385.275 322.723 L 1386.301 322.723 L 1386.701 317.567 L 1386.701 317.567 Z  M 1383.098 317.567 L 1381.281 317.567 L 1381.682 322.723 L 1382.697 322.723 L 1383.098 317.567 L 1383.098 317.567 Z " fill-rule="evenodd" fill="rgb(0,0,0)"/></g></svg>